<?xml version="1.0" standalone="yes"?>

<svg version="1.1" viewBox="0.0 0.0 432.1679790026247 383.32020997375326" fill="none" stroke="none" stroke-linecap="square" stroke-miterlimit="10" xmlns="http://www.w3.org/2000/svg" xmlns:xlink="http://www.w3.org/1999/xlink"><clipPath id="p.0"><path d="m0 0l432.16797 0l0 383.32022l-432.16797 0l0 -383.32022z" clip-rule="nonzero"></path></clipPath><g clip-path="url(#p.0)"><path fill="#000000" fill-opacity="0.0" d="m0 0l432.16797 0l0 383.32022l-432.16797 0z" fill-rule="nonzero"></path><path fill="#000000" d="m147.50131 121.32284l0 0c0 -34.763504 30.705505 -62.944885 68.58267 -62.944885l0 0c37.877167 0 68.58267 28.181381 68.58267 62.944885l0 0c0 34.763496 -30.705505 62.944878 -68.58267 62.944878l0 0c-37.877167 0 -68.58267 -28.181381 -68.58267 -62.944878z" fill-rule="nonzero"></path><path stroke="#000000" stroke-width="4.0" stroke-linejoin="round" stroke-linecap="butt" d="m147.50131 121.32284l0 0c0 -34.763504 30.705505 -62.944885 68.58267 -62.944885l0 0c37.877167 0 68.58267 28.181381 68.58267 62.944885l0 0c0 34.763496 -30.705505 62.944878 -68.58267 62.944878l0 0c-37.877167 0 -68.58267 -28.181381 -68.58267 -62.944878z" fill-rule="nonzero"></path><path fill="#000000" d="m149.69029 138.74278l132.7874 0l-66.39371 193.41731z" fill-rule="nonzero"></path><path stroke="#000000" stroke-width="4.0" stroke-linejoin="round" stroke-linecap="butt" d="m149.69029 138.74278l132.7874 0l-66.39371 193.41731z" fill-rule="nonzero"></path><path fill="#ffffff" d="m161.37534 121.32284l0 0c0 -28.25785 24.493896 -51.16536 54.70865 -51.16536l0 0c30.214767 0 54.70868 22.907509 54.70868 51.16536l0 0c0 28.257835 -24.493912 51.16535 -54.70868 51.16535l0 0c-30.214752 0 -54.70865 -22.907516 -54.70865 -51.16535z" fill-rule="nonzero"></path><path stroke="#000000" stroke-width="4.0" stroke-linejoin="round" stroke-linecap="butt" d="m161.37534 121.32284l0 0c0 -28.25785 24.493896 -51.16536 54.70865 -51.16536l0 0c30.214767 0 54.70868 22.907509 54.70868 51.16536l0 0c0 28.257835 -24.493912 51.16535 -54.70868 51.16535l0 0c-30.214752 0 -54.70865 -22.907516 -54.70865 -51.16535z" fill-rule="nonzero"></path><path fill="#000000" d="m191.78477 121.32284l0 0c0 -12.724297 10.879135 -23.039375 24.29921 -23.039375l0 0c6.4445496 0 12.625153 2.4273605 17.182144 6.7480774c4.5569916 4.320717 7.1170807 10.18087 7.1170807 16.291298l0 0c0 12.724297 -10.879135 23.03936 -24.299225 23.03936l0 0c-13.420074 0 -24.29921 -10.315063 -24.29921 -23.03936z" fill-rule="nonzero"></path><path stroke="#000000" stroke-width="4.0" stroke-linejoin="round" stroke-linecap="butt" d="m191.78477 121.32284l0 0c0 -12.724297 10.879135 -23.039375 24.29921 -23.039375l0 0c6.4445496 0 12.625153 2.4273605 17.182144 6.7480774c4.5569916 4.320717 7.1170807 10.18087 7.1170807 16.291298l0 0c0 12.724297 -10.879135 23.03936 -24.299225 23.03936l0 0c-13.420074 0 -24.29921 -10.315063 -24.29921 -23.03936z" fill-rule="nonzero"></path></g></svg>
